<mxfile host="Electron" agent="Mozilla/5.0 (Windows NT 10.0; Win64; x64) AppleWebKit/537.36 (KHTML, like Gecko) draw.io/24.7.17 Chrome/128.0.6613.36 Electron/32.0.1 Safari/537.36" version="24.7.17">
  <diagram id="C5RBs43oDa-KdzZeNtuy" name="Page-1">
    <mxGraphModel dx="1234" dy="1906" grid="1" gridSize="10" guides="1" tooltips="1" connect="1" arrows="1" fold="1" page="1" pageScale="1" pageWidth="827" pageHeight="1169" math="0" shadow="0">
      <root>
        <mxCell id="WIyWlLk6GJQsqaUBKTNV-0" />
        <mxCell id="WIyWlLk6GJQsqaUBKTNV-1" parent="WIyWlLk6GJQsqaUBKTNV-0" />
        <mxCell id="siq1iwBJ57_yE8xpxTgl-0" value="" style="edgeStyle=none;curved=1;rounded=0;orthogonalLoop=1;jettySize=auto;html=1;fontSize=12;startSize=8;endSize=8;" parent="WIyWlLk6GJQsqaUBKTNV-1" source="WIyWlLk6GJQsqaUBKTNV-3" target="WIyWlLk6GJQsqaUBKTNV-12" edge="1">
          <mxGeometry relative="1" as="geometry" />
        </mxCell>
        <mxCell id="WIyWlLk6GJQsqaUBKTNV-3" value="START" style="rounded=1;whiteSpace=wrap;html=1;fontSize=12;glass=0;strokeWidth=1;shadow=0;fillColor=#82FFCD;" parent="WIyWlLk6GJQsqaUBKTNV-1" vertex="1">
          <mxGeometry x="160" y="80" width="120" height="40" as="geometry" />
        </mxCell>
        <mxCell id="siq1iwBJ57_yE8xpxTgl-7" value="" style="edgeStyle=none;curved=1;rounded=0;orthogonalLoop=1;jettySize=auto;html=1;fontSize=12;startSize=8;endSize=8;" parent="WIyWlLk6GJQsqaUBKTNV-1" source="WIyWlLk6GJQsqaUBKTNV-7" target="siq1iwBJ57_yE8xpxTgl-6" edge="1">
          <mxGeometry relative="1" as="geometry" />
        </mxCell>
        <mxCell id="WIyWlLk6GJQsqaUBKTNV-7" value="SIGN-UP" style="rounded=1;whiteSpace=wrap;html=1;fontSize=12;glass=0;strokeWidth=1;shadow=0;fillColor=#66FF66;" parent="WIyWlLk6GJQsqaUBKTNV-1" vertex="1">
          <mxGeometry x="160" y="180" width="120" height="40" as="geometry" />
        </mxCell>
        <mxCell id="siq1iwBJ57_yE8xpxTgl-5" value="" style="edgeStyle=none;curved=1;rounded=0;orthogonalLoop=1;jettySize=auto;html=1;fontSize=12;startSize=8;endSize=8;" parent="WIyWlLk6GJQsqaUBKTNV-1" source="WIyWlLk6GJQsqaUBKTNV-12" target="siq1iwBJ57_yE8xpxTgl-4" edge="1">
          <mxGeometry relative="1" as="geometry" />
        </mxCell>
        <mxCell id="WIyWlLk6GJQsqaUBKTNV-12" value="SIGN-IN" style="rounded=1;whiteSpace=wrap;html=1;fontSize=12;glass=0;strokeWidth=1;shadow=0;fillColor=#66FFFF;" parent="WIyWlLk6GJQsqaUBKTNV-1" vertex="1">
          <mxGeometry x="320" y="80" width="120" height="40" as="geometry" />
        </mxCell>
        <mxCell id="siq1iwBJ57_yE8xpxTgl-3" value="" style="endArrow=classic;html=1;rounded=0;fontSize=12;startSize=8;endSize=8;curved=1;entryX=0.5;entryY=0;entryDx=0;entryDy=0;exitX=0.5;exitY=1;exitDx=0;exitDy=0;" parent="WIyWlLk6GJQsqaUBKTNV-1" source="WIyWlLk6GJQsqaUBKTNV-3" target="WIyWlLk6GJQsqaUBKTNV-7" edge="1">
          <mxGeometry width="50" height="50" relative="1" as="geometry">
            <mxPoint x="320" y="300" as="sourcePoint" />
            <mxPoint x="370" y="250" as="targetPoint" />
          </mxGeometry>
        </mxCell>
        <mxCell id="siq1iwBJ57_yE8xpxTgl-16" value="" style="edgeStyle=none;curved=1;rounded=0;orthogonalLoop=1;jettySize=auto;html=1;fontSize=12;startSize=8;endSize=8;exitX=0.5;exitY=0;exitDx=0;exitDy=0;" parent="WIyWlLk6GJQsqaUBKTNV-1" source="siq1iwBJ57_yE8xpxTgl-4" edge="1">
          <mxGeometry relative="1" as="geometry">
            <mxPoint x="910" y="60" as="sourcePoint" />
            <mxPoint x="870" y="-10" as="targetPoint" />
          </mxGeometry>
        </mxCell>
        <mxCell id="siq1iwBJ57_yE8xpxTgl-4" value="WELCOME PAGE/HOME PAGE" style="rounded=1;whiteSpace=wrap;html=1;fillColor=#66FFFF;" parent="WIyWlLk6GJQsqaUBKTNV-1" vertex="1">
          <mxGeometry x="810" y="80" width="120" height="40" as="geometry" />
        </mxCell>
        <mxCell id="siq1iwBJ57_yE8xpxTgl-9" value="" style="edgeStyle=none;curved=1;rounded=0;orthogonalLoop=1;jettySize=auto;html=1;fontSize=12;startSize=8;endSize=8;" parent="WIyWlLk6GJQsqaUBKTNV-1" source="siq1iwBJ57_yE8xpxTgl-6" target="siq1iwBJ57_yE8xpxTgl-8" edge="1">
          <mxGeometry relative="1" as="geometry" />
        </mxCell>
        <mxCell id="siq1iwBJ57_yE8xpxTgl-6" value="EMAIL/PASSWORD" style="whiteSpace=wrap;html=1;rounded=1;glass=0;strokeWidth=1;shadow=0;fillColor=#66FFFF;" parent="WIyWlLk6GJQsqaUBKTNV-1" vertex="1">
          <mxGeometry x="490" y="180" width="120" height="40" as="geometry" />
        </mxCell>
        <mxCell id="siq1iwBJ57_yE8xpxTgl-11" value="" style="edgeStyle=none;curved=1;rounded=0;orthogonalLoop=1;jettySize=auto;html=1;fontSize=12;startSize=8;endSize=8;" parent="WIyWlLk6GJQsqaUBKTNV-1" source="siq1iwBJ57_yE8xpxTgl-8" target="siq1iwBJ57_yE8xpxTgl-10" edge="1">
          <mxGeometry relative="1" as="geometry" />
        </mxCell>
        <mxCell id="siq1iwBJ57_yE8xpxTgl-8" value="ACCOUNT CREATION MESSAGE" style="whiteSpace=wrap;html=1;rounded=1;glass=0;strokeWidth=1;shadow=0;fillColor=#66FFFF;" parent="WIyWlLk6GJQsqaUBKTNV-1" vertex="1">
          <mxGeometry x="490" y="260" width="120" height="40" as="geometry" />
        </mxCell>
        <mxCell id="siq1iwBJ57_yE8xpxTgl-26" value="" style="edgeStyle=none;curved=1;rounded=0;orthogonalLoop=1;jettySize=auto;html=1;fontSize=12;startSize=8;endSize=8;" parent="WIyWlLk6GJQsqaUBKTNV-1" source="siq1iwBJ57_yE8xpxTgl-10" target="siq1iwBJ57_yE8xpxTgl-25" edge="1">
          <mxGeometry relative="1" as="geometry" />
        </mxCell>
        <mxCell id="siq1iwBJ57_yE8xpxTgl-10" value="VALID" style="whiteSpace=wrap;html=1;rounded=1;glass=0;strokeWidth=1;shadow=0;fillColor=#66FFFF;" parent="WIyWlLk6GJQsqaUBKTNV-1" vertex="1">
          <mxGeometry x="650" y="260" width="120" height="40" as="geometry" />
        </mxCell>
        <mxCell id="siq1iwBJ57_yE8xpxTgl-12" value="" style="endArrow=classic;html=1;rounded=0;fontSize=12;startSize=8;endSize=8;curved=1;" parent="WIyWlLk6GJQsqaUBKTNV-1" target="siq1iwBJ57_yE8xpxTgl-13" edge="1">
          <mxGeometry width="50" height="50" relative="1" as="geometry">
            <mxPoint x="600" y="300" as="sourcePoint" />
            <mxPoint x="650" y="360" as="targetPoint" />
          </mxGeometry>
        </mxCell>
        <mxCell id="siq1iwBJ57_yE8xpxTgl-13" value="INVALID" style="rounded=1;whiteSpace=wrap;html=1;fillColor=#FF3333;" parent="WIyWlLk6GJQsqaUBKTNV-1" vertex="1">
          <mxGeometry x="650" y="320" width="120" height="40" as="geometry" />
        </mxCell>
        <mxCell id="siq1iwBJ57_yE8xpxTgl-14" value="" style="endArrow=classic;html=1;rounded=0;fontSize=12;startSize=8;endSize=8;curved=1;exitX=0;exitY=0.75;exitDx=0;exitDy=0;entryX=0;entryY=0.5;entryDx=0;entryDy=0;" parent="WIyWlLk6GJQsqaUBKTNV-1" source="siq1iwBJ57_yE8xpxTgl-13" target="siq1iwBJ57_yE8xpxTgl-6" edge="1">
          <mxGeometry width="50" height="50" relative="1" as="geometry">
            <mxPoint x="570" y="420" as="sourcePoint" />
            <mxPoint x="620" y="370" as="targetPoint" />
            <Array as="points">
              <mxPoint x="430" y="380" />
            </Array>
          </mxGeometry>
        </mxCell>
        <mxCell id="siq1iwBJ57_yE8xpxTgl-18" value="" style="edgeStyle=none;curved=1;rounded=0;orthogonalLoop=1;jettySize=auto;html=1;fontSize=12;startSize=8;endSize=8;" parent="WIyWlLk6GJQsqaUBKTNV-1" source="siq1iwBJ57_yE8xpxTgl-15" target="siq1iwBJ57_yE8xpxTgl-17" edge="1">
          <mxGeometry relative="1" as="geometry" />
        </mxCell>
        <mxCell id="siq1iwBJ57_yE8xpxTgl-15" value="USER INPUT&amp;nbsp;" style="rounded=1;whiteSpace=wrap;html=1;fillColor=#66FFFF;" parent="WIyWlLk6GJQsqaUBKTNV-1" vertex="1">
          <mxGeometry x="1020" y="80" width="120" height="40" as="geometry" />
        </mxCell>
        <mxCell id="siq1iwBJ57_yE8xpxTgl-28" value="" style="edgeStyle=none;curved=1;rounded=0;orthogonalLoop=1;jettySize=auto;html=1;fontSize=12;startSize=8;endSize=8;" parent="WIyWlLk6GJQsqaUBKTNV-1" source="siq1iwBJ57_yE8xpxTgl-17" target="siq1iwBJ57_yE8xpxTgl-27" edge="1">
          <mxGeometry relative="1" as="geometry" />
        </mxCell>
        <mxCell id="siq1iwBJ57_yE8xpxTgl-17" value="DEPOSIT" style="rounded=1;whiteSpace=wrap;html=1;fillColor=#66FFFF;" parent="WIyWlLk6GJQsqaUBKTNV-1" vertex="1">
          <mxGeometry x="1181" y="80" width="120" height="40" as="geometry" />
        </mxCell>
        <mxCell id="siq1iwBJ57_yE8xpxTgl-19" value="" style="endArrow=classic;html=1;rounded=0;fontSize=12;startSize=8;endSize=8;curved=1;entryX=0.5;entryY=1;entryDx=0;entryDy=0;exitX=0.5;exitY=0;exitDx=0;exitDy=0;" parent="WIyWlLk6GJQsqaUBKTNV-1" source="siq1iwBJ57_yE8xpxTgl-25" target="siq1iwBJ57_yE8xpxTgl-4" edge="1">
          <mxGeometry width="50" height="50" relative="1" as="geometry">
            <mxPoint x="620" y="300" as="sourcePoint" />
            <mxPoint x="670" y="250" as="targetPoint" />
          </mxGeometry>
        </mxCell>
        <mxCell id="siq1iwBJ57_yE8xpxTgl-30" value="" style="edgeStyle=none;curved=1;rounded=0;orthogonalLoop=1;jettySize=auto;html=1;fontSize=12;startSize=8;endSize=8;" parent="WIyWlLk6GJQsqaUBKTNV-1" source="siq1iwBJ57_yE8xpxTgl-23" target="siq1iwBJ57_yE8xpxTgl-29" edge="1">
          <mxGeometry relative="1" as="geometry" />
        </mxCell>
        <mxCell id="siq1iwBJ57_yE8xpxTgl-23" value="WITHDRAWAL" style="rounded=1;whiteSpace=wrap;html=1;fillColor=#66FFFF;" parent="WIyWlLk6GJQsqaUBKTNV-1" vertex="1">
          <mxGeometry x="1020" y="160" width="120" height="50" as="geometry" />
        </mxCell>
        <mxCell id="siq1iwBJ57_yE8xpxTgl-24" value="" style="endArrow=classic;html=1;rounded=0;fontSize=12;startSize=8;endSize=8;curved=1;exitX=0.5;exitY=1;exitDx=0;exitDy=0;entryX=0.5;entryY=0;entryDx=0;entryDy=0;" parent="WIyWlLk6GJQsqaUBKTNV-1" source="siq1iwBJ57_yE8xpxTgl-15" target="siq1iwBJ57_yE8xpxTgl-23" edge="1">
          <mxGeometry width="50" height="50" relative="1" as="geometry">
            <mxPoint x="850" y="300" as="sourcePoint" />
            <mxPoint x="900" y="250" as="targetPoint" />
          </mxGeometry>
        </mxCell>
        <mxCell id="siq1iwBJ57_yE8xpxTgl-25" value="ADD TO DATABASE USERS TABLE" style="whiteSpace=wrap;html=1;rounded=1;glass=0;strokeWidth=1;shadow=0;fillColor=#66FF66;" parent="WIyWlLk6GJQsqaUBKTNV-1" vertex="1">
          <mxGeometry x="810" y="260" width="120" height="40" as="geometry" />
        </mxCell>
        <mxCell id="siq1iwBJ57_yE8xpxTgl-33" value="" style="edgeStyle=none;curved=1;rounded=0;orthogonalLoop=1;jettySize=auto;html=1;fontSize=12;startSize=8;endSize=8;" parent="WIyWlLk6GJQsqaUBKTNV-1" source="siq1iwBJ57_yE8xpxTgl-27" target="siq1iwBJ57_yE8xpxTgl-31" edge="1">
          <mxGeometry relative="1" as="geometry" />
        </mxCell>
        <mxCell id="siq1iwBJ57_yE8xpxTgl-27" value="ADD&amp;nbsp; MONETARY VALUESTO DATABASE EXPENSES TABLE" style="rounded=1;whiteSpace=wrap;html=1;fillColor=#33FFFF;" parent="WIyWlLk6GJQsqaUBKTNV-1" vertex="1">
          <mxGeometry x="1330" y="80" width="140" height="40" as="geometry" />
        </mxCell>
        <mxCell id="siq1iwBJ57_yE8xpxTgl-32" value="" style="edgeStyle=none;curved=1;rounded=0;orthogonalLoop=1;jettySize=auto;html=1;fontSize=12;startSize=8;endSize=8;" parent="WIyWlLk6GJQsqaUBKTNV-1" source="siq1iwBJ57_yE8xpxTgl-29" target="siq1iwBJ57_yE8xpxTgl-31" edge="1">
          <mxGeometry relative="1" as="geometry" />
        </mxCell>
        <mxCell id="siq1iwBJ57_yE8xpxTgl-29" value="SUBTRACT MONETARY VALUES FROM DATABASE EXPENSES TABLE" style="rounded=1;whiteSpace=wrap;html=1;fillColor=#33FFFF;" parent="WIyWlLk6GJQsqaUBKTNV-1" vertex="1">
          <mxGeometry x="1320" y="160" width="150" height="50" as="geometry" />
        </mxCell>
        <mxCell id="2wK0H2d_6rG5-nH_A5mi-1" value="" style="edgeStyle=orthogonalEdgeStyle;rounded=0;orthogonalLoop=1;jettySize=auto;html=1;" edge="1" parent="WIyWlLk6GJQsqaUBKTNV-1" source="siq1iwBJ57_yE8xpxTgl-31" target="2wK0H2d_6rG5-nH_A5mi-0">
          <mxGeometry relative="1" as="geometry" />
        </mxCell>
        <mxCell id="siq1iwBJ57_yE8xpxTgl-31" value="FEEDBACK MESSAGE TO USER" style="rounded=1;whiteSpace=wrap;html=1;fillColor=#66FF66;" parent="WIyWlLk6GJQsqaUBKTNV-1" vertex="1">
          <mxGeometry x="1510" y="120" width="120" height="50" as="geometry" />
        </mxCell>
        <mxCell id="siq1iwBJ57_yE8xpxTgl-36" value="" style="edgeStyle=none;curved=1;rounded=0;orthogonalLoop=1;jettySize=auto;html=1;fontSize=12;startSize=8;endSize=8;" parent="WIyWlLk6GJQsqaUBKTNV-1" source="siq1iwBJ57_yE8xpxTgl-34" target="siq1iwBJ57_yE8xpxTgl-35" edge="1">
          <mxGeometry relative="1" as="geometry" />
        </mxCell>
        <mxCell id="siq1iwBJ57_yE8xpxTgl-34" value="USER NAVIGATION TO EXPENSES PAGE" style="rounded=1;whiteSpace=wrap;html=1;fillColor=#66FFFF;" parent="WIyWlLk6GJQsqaUBKTNV-1" vertex="1">
          <mxGeometry x="810" y="-70" width="120" height="60" as="geometry" />
        </mxCell>
        <mxCell id="siq1iwBJ57_yE8xpxTgl-37" value="" style="edgeStyle=none;curved=1;rounded=0;orthogonalLoop=1;jettySize=auto;html=1;fontSize=12;startSize=8;endSize=8;" parent="WIyWlLk6GJQsqaUBKTNV-1" source="siq1iwBJ57_yE8xpxTgl-35" target="siq1iwBJ57_yE8xpxTgl-15" edge="1">
          <mxGeometry relative="1" as="geometry" />
        </mxCell>
        <mxCell id="siq1iwBJ57_yE8xpxTgl-35" value="SHORT DESCRIPTION VIEW OF PAGE" style="rounded=1;whiteSpace=wrap;html=1;fillColor=#66FF66;" parent="WIyWlLk6GJQsqaUBKTNV-1" vertex="1">
          <mxGeometry x="1020" y="-70" width="120" height="60" as="geometry" />
        </mxCell>
        <mxCell id="2wK0H2d_6rG5-nH_A5mi-0" value="STOP" style="rounded=1;whiteSpace=wrap;html=1;fillColor=#66FFFF;" vertex="1" parent="WIyWlLk6GJQsqaUBKTNV-1">
          <mxGeometry x="1680" y="120" width="120" height="50" as="geometry" />
        </mxCell>
      </root>
    </mxGraphModel>
  </diagram>
</mxfile>
